<svg width="9" height="10" viewBox="0 0 9 10" fill="none" xmlns="http://www.w3.org/2000/svg">
<path d="M4.70508 9.03906L8.50391 5.24023C8.52995 5.21419 8.54948 5.1849 8.5625 5.15234C8.58203 5.11328 8.5918 5.07096 8.5918 5.02539C8.5918 4.98633 8.58203 4.95052 8.5625 4.91797C8.54948 4.87891 8.52995 4.84635 8.50391 4.82031L7.88867 4.21484C7.86263 4.18229 7.83008 4.15951 7.79102 4.14648C7.75846 4.13346 7.72266 4.12695 7.68359 4.12695C7.64453 4.12695 7.60547 4.13346 7.56641 4.14648C7.53385 4.15951 7.5013 4.18229 7.46875 4.21484L5.22266 6.46094V0.386719C5.22266 0.315104 5.19661 0.253255 5.14453 0.201172C5.09245 0.149089 5.0306 0.123047 4.95898 0.123047H4.03125C3.95964 0.123047 3.89779 0.149089 3.8457 0.201172C3.79362 0.253255 3.76758 0.315104 3.76758 0.386719V6.46094L1.52148 4.21484C1.49544 4.18229 1.46289 4.15951 1.42383 4.14648C1.39128 4.13346 1.35547 4.12695 1.31641 4.12695C1.27083 4.12695 1.22852 4.13346 1.18945 4.14648C1.1569 4.15951 1.1276 4.18229 1.10156 4.21484L0.496094 4.82031C0.470052 4.84635 0.447266 4.87891 0.427734 4.91797C0.414714 4.95052 0.408203 4.98633 0.408203 5.02539C0.408203 5.07096 0.414714 5.11328 0.427734 5.15234C0.447266 5.1849 0.470052 5.21419 0.496094 5.24023L4.29492 9.03906C4.32096 9.0651 4.35026 9.08464 4.38281 9.09766C4.42188 9.11068 4.46094 9.11719 4.5 9.11719C4.53906 9.11719 4.57487 9.11068 4.60742 9.09766C4.64648 9.08464 4.67904 9.0651 4.70508 9.03906Z" fill="black"/>
</svg>
