<svg width="14" height="4" viewBox="0 0 14 4" fill="none" xmlns="http://www.w3.org/2000/svg">
<path fill-rule="evenodd" clip-rule="evenodd" d="M10.4912 1.99805C10.4912 2.41276 10.6393 2.76823 10.9355 3.06445C11.2318 3.36068 11.5872 3.50879 12.002 3.50879C12.4167 3.50879 12.77 3.36068 13.062 3.06445C13.354 2.76823 13.5 2.41276 13.5 1.99805C13.5 1.58333 13.354 1.22998 13.062 0.937988C12.77 0.645996 12.4167 0.5 12.002 0.5C11.5872 0.5 11.2318 0.645996 10.9355 0.937988C10.6393 1.22998 10.4912 1.58333 10.4912 1.99805ZM5.50195 1.99805C5.50195 2.41276 5.64795 2.76823 5.93994 3.06445C6.23193 3.36068 6.58529 3.50879 7 3.50879L7.15264 3.50185C7.50209 3.46945 7.80457 3.32365 8.06006 3.06445C8.35205 2.76823 8.49805 2.41276 8.49805 1.99805C8.49805 1.58333 8.35205 1.22998 8.06006 0.937988C7.76807 0.645996 7.41471 0.5 7 0.5C6.58529 0.5 6.23193 0.645996 5.93994 0.937988C5.64795 1.22998 5.50195 1.58333 5.50195 1.99805ZM0.5 1.99805C0.5 2.41276 0.645996 2.76823 0.937988 3.06445C1.22998 3.36068 1.58333 3.50879 1.99805 3.50879L2.15366 3.50185C2.50959 3.46945 2.81531 3.32365 3.0708 3.06445C3.36279 2.76823 3.50879 2.41276 3.50879 1.99805C3.50879 1.58333 3.36279 1.22998 3.0708 0.937988C2.77881 0.645996 2.42122 0.5 1.99805 0.5C1.58333 0.5 1.22998 0.645996 0.937988 0.937988C0.645996 1.22998 0.5 1.58333 0.5 1.99805Z" fill="#555555"/>
</svg>
