<svg width="10" height="13" viewBox="0 0 10 13" fill="none" xmlns="http://www.w3.org/2000/svg">
<path d="M9.68164 3.31641H9.23633V11.918C9.23633 11.9727 9.2168 12.0195 9.17773 12.0586C9.13867 12.0977 9.0918 12.1172 9.03711 12.1172H2.68555V12.5508C2.68555 12.6055 2.70508 12.6523 2.74414 12.6914C2.7832 12.7305 2.83008 12.75 2.88477 12.75H9.68164C9.73633 12.75 9.7832 12.7305 9.82227 12.6914C9.86133 12.6523 9.88086 12.6055 9.88086 12.5508V3.50391C9.88086 3.44922 9.86133 3.40234 9.82227 3.36328C9.7832 3.32422 9.73633 3.30469 9.68164 3.30469V3.31641ZM8.5918 11.2734V2.22656C8.5918 2.17188 8.57227 2.125 8.5332 2.08594C8.49414 2.04687 8.44727 2.02734 8.39258 2.02734H7.95898V10.6289C7.95898 10.6836 7.93945 10.7305 7.90039 10.7695C7.86133 10.8086 7.81445 10.8281 7.75977 10.8281H1.39648V11.2734C1.39648 11.3281 1.41602 11.375 1.45508 11.4141C1.49414 11.4531 1.54102 11.4727 1.5957 11.4727H8.4043C8.45898 11.4727 8.50586 11.4531 8.54492 11.4141C8.58398 11.375 8.60352 11.3281 8.60352 11.2734H8.5918ZM7.31445 9.99609V0.949219C7.31445 0.894531 7.29492 0.847656 7.25586 0.808594C7.2168 0.769531 7.16992 0.75 7.11523 0.75H0.318359C0.263672 0.75 0.216797 0.769531 0.177734 0.808594C0.138672 0.847656 0.119141 0.894531 0.119141 0.949219V9.99609C0.119141 10.0508 0.138672 10.0977 0.177734 10.1367C0.216797 10.1758 0.263672 10.1953 0.318359 10.1953H7.11523C7.16992 10.1953 7.2168 10.1758 7.25586 10.1367C7.29492 10.0977 7.31445 10.0508 7.31445 9.99609Z" fill="black"/>
</svg>
