<svg width="14" height="13" viewBox="0 0 14 13" fill="none" xmlns="http://www.w3.org/2000/svg">
<path d="M14 2.0332C14 1.73242 13.8906 1.47266 13.6719 1.25391C13.4622 1.03516 13.207 0.916667 12.9062 0.898438H1.13477C0.815755 0.898438 0.546875 1.01237 0.328125 1.24023C0.109375 1.45898 0 1.72786 0 2.04688C0 2.22005 0.0364583 2.38411 0.109375 2.53906C0.191406 2.69401 0.296224 2.82161 0.423828 2.92188L5.70117 8.21289V11.4805C5.70117 11.5807 5.72852 11.6764 5.7832 11.7676C5.83789 11.8496 5.90625 11.9134 5.98828 11.959H6.00195L7.41016 12.7793C7.45573 12.8066 7.5013 12.8249 7.54688 12.834C7.60156 12.8522 7.65625 12.8613 7.71094 12.8613C7.875 12.8613 8.01628 12.8021 8.13477 12.6836C8.25326 12.5742 8.3125 12.4375 8.3125 12.2734C8.3125 12.2734 8.3125 12.2689 8.3125 12.2598C8.3125 12.2598 8.3125 12.2552 8.3125 12.2461C8.3125 12.237 8.3125 12.2279 8.3125 12.2188V8.21289L13.6309 2.88086C13.7493 2.7806 13.8405 2.65755 13.9043 2.51172C13.9681 2.36589 14 2.21094 14 2.04688C14 2.04688 14 2.04232 14 2.0332Z" fill="#707070"/>
</svg>
