<svg width="14" height="14" viewBox="0 0 14 14" fill="none" xmlns="http://www.w3.org/2000/svg">
<path d="M12.6494 5.74609H8.06641V1.16309C8.06641 1.00228 8.01139 0.866862 7.90137 0.756836C7.79134 0.64681 7.65592 0.591797 7.49512 0.591797H6.50488C6.35254 0.591797 6.21712 0.64681 6.09863 0.756836C5.98861 0.866862 5.93359 1.00228 5.93359 1.16309V5.74609H1.35059C1.18978 5.74609 1.05436 5.80534 0.944336 5.92383C0.83431 6.03385 0.779297 6.16504 0.779297 6.31738V7.30762C0.779297 7.45996 0.83431 7.59538 0.944336 7.71387C1.05436 7.82389 1.18978 7.87891 1.35059 7.87891H5.93359V12.4619C5.93359 12.6227 5.98861 12.7581 6.09863 12.8682C6.21712 12.9782 6.35254 13.0332 6.50488 13.0332H7.49512C7.65592 13.0332 7.79134 12.9782 7.90137 12.8682C8.01139 12.7581 8.06641 12.6227 8.06641 12.4619V7.87891H12.6494C12.8102 7.87891 12.9456 7.82389 13.0557 7.71387C13.1657 7.59538 13.2207 7.45996 13.2207 7.30762V6.31738C13.2207 6.16504 13.1657 6.03385 13.0557 5.92383C12.9456 5.80534 12.8102 5.74609 12.6494 5.74609Z" fill="white"/>
</svg>
