<svg width="14" height="14" viewBox="0 0 14 14" fill="none" xmlns="http://www.w3.org/2000/svg">
<path d="M13.0176 2.90723L10.9482 4.96387C10.9398 4.96387 10.9271 4.96387 10.9102 4.96387C10.8932 4.96387 10.8763 4.96387 10.8594 4.96387C10.4447 4.96387 10.0892 4.81576 9.79297 4.51953C9.49674 4.22331 9.34863 3.86784 9.34863 3.45312C9.34863 3.4362 9.34863 3.41927 9.34863 3.40234C9.34863 3.38542 9.34863 3.36849 9.34863 3.35156L10.1357 2.56445L11.4053 1.29492C11.4137 1.28646 11.4222 1.27799 11.4307 1.26953C11.4391 1.2526 11.4434 1.23568 11.4434 1.21875C11.4434 1.21029 11.4391 1.20182 11.4307 1.19336C11.4222 1.17643 11.4137 1.15951 11.4053 1.14258C11.4053 1.14258 11.401 1.14258 11.3926 1.14258C11.3926 1.13411 11.3883 1.12988 11.3799 1.12988H11.3672C11.1556 1.03678 10.9271 0.964844 10.6816 0.914062C10.4362 0.854818 10.1781 0.825195 9.90723 0.825195C9.41634 0.825195 8.95508 0.918294 8.52344 1.10449C8.08333 1.29069 7.70247 1.54883 7.38086 1.87891C7.05924 2.20052 6.80534 2.57715 6.61914 3.00879C6.42448 3.44889 6.32715 3.91439 6.32715 4.40527C6.32715 4.59993 6.33984 4.79036 6.36523 4.97656C6.39909 5.1543 6.44564 5.33203 6.50488 5.50977L2.75977 9.2168C2.13346 9.22526 1.60026 9.45378 1.16016 9.90234C0.720052 10.3509 0.5 10.8883 0.5 11.5146C0.5 12.1494 0.724284 12.6911 1.17285 13.1396C1.62142 13.5882 2.16309 13.8125 2.79785 13.8125C3.42415 13.8125 3.96159 13.5924 4.41016 13.1523C4.85872 12.7122 5.08724 12.179 5.0957 11.5527L8.82812 7.80762C8.98893 7.86686 9.16243 7.91341 9.34863 7.94727C9.53483 7.97266 9.72526 7.98535 9.91992 7.98535C10.4193 7.98535 10.8848 7.89225 11.3164 7.70605C11.748 7.51986 12.1247 7.26595 12.4463 6.94434C12.7764 6.61426 13.0345 6.2334 13.2207 5.80176C13.4069 5.36165 13.5 4.89616 13.5 4.40527C13.5 4.1429 13.4704 3.889 13.4111 3.64355C13.3604 3.38965 13.2842 3.14844 13.1826 2.91992V2.93262C13.1826 2.92415 13.1826 2.91992 13.1826 2.91992C13.1826 2.91146 13.1784 2.90723 13.1699 2.90723C13.1615 2.89876 13.1488 2.89453 13.1318 2.89453C13.1234 2.88607 13.1107 2.88184 13.0938 2.88184C13.0853 2.88184 13.0726 2.88607 13.0557 2.89453C13.0472 2.89453 13.0345 2.89876 13.0176 2.90723ZM3.75 11.5146C3.75 11.777 3.6569 12.0013 3.4707 12.1875C3.28451 12.3737 3.06022 12.4668 2.79785 12.4668C2.53548 12.4668 2.3112 12.3737 2.125 12.1875C1.9388 12.0013 1.8457 11.777 1.8457 11.5146C1.8457 11.2523 1.9388 11.028 2.125 10.8418C2.3112 10.6556 2.53548 10.5625 2.79785 10.5625C3.06022 10.5625 3.28451 10.6556 3.4707 10.8418C3.6569 11.028 3.75 11.2523 3.75 11.5146Z" fill="#707070"/>
</svg>
