<svg width="14" height="10" viewBox="0 0 14 10" fill="none" xmlns="http://www.w3.org/2000/svg">
<path d="M13.7676 6.16992L11.3887 5.04883C11.6712 4.84831 11.8945 4.59766 12.0586 4.29688C12.2318 3.98698 12.3184 3.64974 12.3184 3.28516C12.3184 3.27604 12.3184 3.26693 12.3184 3.25781C12.3184 3.2487 12.3184 3.23958 12.3184 3.23047C12.3184 2.66536 12.1452 2.18229 11.7988 1.78125C11.4525 1.38021 11.0378 1.17969 10.5547 1.17969C10.3815 1.17969 10.2174 1.20703 10.0625 1.26172C9.90755 1.31641 9.76172 1.38932 9.625 1.48047C9.70703 1.67188 9.77083 1.88151 9.81641 2.10938C9.86198 2.32812 9.88477 2.55599 9.88477 2.79297C9.88477 3.14844 9.83464 3.49023 9.73438 3.81836C9.63411 4.14648 9.49284 4.44727 9.31055 4.7207C9.37435 4.78451 9.43815 4.84375 9.50195 4.89844C9.57487 4.95312 9.64779 5.00326 9.7207 5.04883H9.73438L11.2656 5.77344C11.4753 5.89193 11.6439 6.05599 11.7715 6.26562C11.8991 6.46615 11.9629 6.68945 11.9629 6.93555C11.9629 6.93555 11.9629 6.9401 11.9629 6.94922C11.9629 6.94922 11.9629 6.95378 11.9629 6.96289V8.94531H13.5898C13.7083 8.9362 13.804 8.89062 13.877 8.80859C13.9499 8.72656 13.9863 8.6263 13.9863 8.50781C13.9863 8.50781 13.9863 8.50326 13.9863 8.49414C13.9863 8.48503 13.9863 8.47591 13.9863 8.4668V6.60742C13.9863 6.59831 13.9863 6.58919 13.9863 6.58008C13.9863 6.49805 13.9635 6.42057 13.918 6.34766C13.8815 6.27474 13.8268 6.22005 13.7539 6.18359L13.7676 6.16992ZM4.30664 5.03516C4.37044 4.9987 4.42969 4.95768 4.48438 4.91211C4.53906 4.85742 4.59375 4.80273 4.64844 4.74805C4.46615 4.47461 4.32031 4.17383 4.21094 3.8457C4.11068 3.50846 4.06055 3.16211 4.06055 2.80664C4.06055 2.79753 4.06055 2.79297 4.06055 2.79297C4.06055 2.54688 4.08333 2.3099 4.12891 2.08203C4.18359 1.85417 4.25195 1.63542 4.33398 1.42578C4.20638 1.35286 4.06966 1.29362 3.92383 1.24805C3.77799 1.20247 3.62305 1.17513 3.45898 1.16602C2.9668 1.16602 2.54753 1.36654 2.20117 1.76758C1.86393 2.16862 1.69531 2.65625 1.69531 3.23047C1.69531 3.23958 1.69531 3.2487 1.69531 3.25781C1.69531 3.26693 1.69531 3.27604 1.69531 3.28516C1.69531 3.64974 1.7819 3.98698 1.95508 4.29688C2.12826 4.60677 2.35612 4.85742 2.63867 5.04883L0.246094 6.16992C0.173177 6.21549 0.113932 6.27474 0.0683594 6.34766C0.0227865 6.42057 0 6.5026 0 6.59375C0 6.59375 0 6.59831 0 6.60742V8.49414C0 8.50326 0 8.51237 0 8.52148C0 8.52148 0 8.52604 0 8.53516C0 8.64453 0.0364583 8.74023 0.109375 8.82227C0.191406 8.9043 0.287109 8.94987 0.396484 8.95898H1.98242V6.97656C1.98242 6.96745 1.98242 6.96289 1.98242 6.96289C1.98242 6.70768 2.04622 6.47982 2.17383 6.2793C2.31055 6.06966 2.48372 5.91016 2.69336 5.80078L4.30664 5.03516ZM10.9512 6.44336L8.01172 5.04883C8.20312 4.91211 8.37174 4.75716 8.51758 4.58398C8.67253 4.41081 8.80013 4.21484 8.90039 3.99609C8.98242 3.8138 9.04622 3.6224 9.0918 3.42188C9.13737 3.22135 9.16016 3.01628 9.16016 2.80664C9.16016 2.67904 9.15104 2.55599 9.13281 2.4375C9.11458 2.31901 9.0918 2.20052 9.06445 2.08203C8.93685 1.5625 8.68164 1.125 8.29883 0.769531C7.91602 0.414062 7.47396 0.236328 6.97266 0.236328C6.47135 0.236328 6.03385 0.409505 5.66016 0.755859C5.28646 1.10221 5.03125 1.53516 4.89453 2.05469C4.86719 2.16406 4.8444 2.28255 4.82617 2.41016C4.80794 2.53776 4.79883 2.66536 4.79883 2.79297C4.79883 2.80208 4.79883 2.80664 4.79883 2.80664C4.79883 3.03451 4.82161 3.25326 4.86719 3.46289C4.92188 3.67253 4.99479 3.87305 5.08594 4.06445C5.17708 4.26497 5.29557 4.45182 5.44141 4.625C5.59635 4.78906 5.76953 4.93034 5.96094 5.04883L5.12695 5.44531L3.00781 6.42969C2.91667 6.48438 2.83919 6.55729 2.77539 6.64844C2.7207 6.73047 2.69336 6.82617 2.69336 6.93555C2.69336 6.94466 2.69336 6.95378 2.69336 6.96289V9.30078C2.69336 9.30078 2.69336 9.30534 2.69336 9.31445C2.69336 9.32357 2.69336 9.33268 2.69336 9.3418C2.69336 9.48763 2.73893 9.61068 2.83008 9.71094C2.93034 9.8112 3.04883 9.86589 3.18555 9.875H10.7598C10.8965 9.86589 11.0104 9.8112 11.1016 9.71094C11.2018 9.61068 11.252 9.48763 11.252 9.3418C11.252 9.3418 11.252 9.33724 11.252 9.32812C11.252 9.31901 11.252 9.3099 11.252 9.30078V6.97656C11.252 6.96745 11.252 6.95833 11.252 6.94922C11.252 6.83984 11.2246 6.74414 11.1699 6.66211C11.1152 6.57096 11.0423 6.49805 10.9512 6.44336Z" fill="#707070"/>
</svg>
